<svg xmlns="http://www.w3.org/2000/svg" width="315" height="36" viewBox="0 0 315 36"><g fill="none" fill-rule="evenodd"><path fill="#00AB2A" d="M36,7.31 C36,11.35 32.73,14.62 28.69,14.62 C24.65,14.62 21.38,11.35 21.38,7.31 C21.38,3.27 24.65,3.55271368e-15 28.69,3.55271368e-15 C32.73,3.55271368e-15 36,3.27 36,7.31"/><path fill="#000" d="M14.61 7.31C14.61 11.35 11.34 14.62 7.3 14.62 3.27 14.61 0 11.34 0 7.31 0 3.27 3.27 3.55271368e-15 7.31 3.55271368e-15 11.34 3.55271368e-15 14.61 3.27 14.61 7.31M28.69 21.39C32.73 21.39 36 24.66 36 28.7 36 32.74 32.73 36.01 28.69 36.01 24.65 36.01 21.38 32.74 21.38 28.7 21.39 24.66 24.66 21.39 28.69 21.39"/><path fill="#000" fill-rule="nonzero" d="M55.41,1.26 L59.82,1.26 C60.63,1.26 61.44,1.37 62.26,1.58 C63.08,1.79 63.82,2.14 64.47,2.62 C65.13,3.11 65.66,3.74 66.07,4.53 C66.48,5.32 66.68,6.3 66.68,7.47 C66.68,8.56 66.47,9.5 66.07,10.28 C65.66,11.06 65.13,11.71 64.47,12.21 C63.81,12.71 63.08,13.09 62.26,13.33 C61.44,13.57 60.63,13.69 59.82,13.69 L55.41,13.69 L55.41,1.26 Z M59.47,11.76 C60.04,11.76 60.62,11.69 61.19,11.56 C61.76,11.43 62.28,11.2 62.74,10.87 C63.2,10.55 63.58,10.11 63.87,9.56 C64.16,9.01 64.31,8.31 64.31,7.47 C64.31,6.58 64.16,5.85 63.87,5.29 C63.58,4.73 63.2,4.29 62.74,3.97 C62.28,3.65 61.76,3.44 61.19,3.32 C60.62,3.2 60.04,3.14 59.47,3.14 L57.63,3.14 L57.63,11.75 L59.47,11.75 L59.47,11.76 Z"/><polygon fill="#000" points="72.17 1.26 80.41 1.26 80.41 3.19 74.39 3.19 74.39 6.35 80.1 6.35 80.1 8.21 74.39 8.21 74.39 11.72 80.73 11.72 80.73 13.69 72.18 13.69 72.18 1.26"/><path fill="#000" d="M94.98,4.17 C94.66,3.73 94.23,3.4 93.7,3.2 C93.17,3 92.66,2.89 92.15,2.89 C91.51,2.89 90.92,3.01 90.39,3.24 C89.86,3.47 89.41,3.8 89.03,4.21 C88.65,4.62 88.36,5.1 88.15,5.65 C87.94,6.2 87.84,6.8 87.84,7.44 C87.84,8.12 87.94,8.74 88.14,9.3 C88.34,9.86 88.62,10.34 88.99,10.75 C89.36,11.15 89.8,11.47 90.32,11.69 C90.84,11.91 91.41,12.02 92.06,12.02 C92.73,12.02 93.32,11.89 93.83,11.62 C94.35,11.36 94.76,11.01 95.08,10.58 L96.85,11.83 C96.3,12.52 95.63,13.06 94.83,13.44 C94.03,13.82 93.1,14.01 92.04,14.01 C91.07,14.01 90.18,13.85 89.36,13.53 C88.55,13.21 87.85,12.76 87.26,12.18 C86.67,11.6 86.22,10.91 85.89,10.11 C85.56,9.31 85.4,8.42 85.4,7.45 C85.4,6.45 85.57,5.56 85.92,4.75 C86.27,3.95 86.74,3.27 87.34,2.7 C87.94,2.13 88.65,1.7 89.47,1.4 C90.29,1.1 91.18,0.94 92.14,0.94 C92.54,0.94 92.95,0.98 93.39,1.05 C93.82,1.13 94.24,1.24 94.64,1.4 C95.04,1.56 95.41,1.75 95.76,1.99 C96.11,2.22 96.41,2.51 96.66,2.83 L94.98,4.17 Z"/><polygon fill="#000" points="101.63 1.26 103.84 1.26 103.84 13.69 101.63 13.69"/><path fill="#000" fill-rule="nonzero" d="M109.97,1.26 L114.03,1.26 C114.74,1.26 115.39,1.32 115.96,1.45 C116.53,1.58 117.03,1.79 117.44,2.08 C117.85,2.37 118.17,2.75 118.39,3.2 C118.61,3.66 118.72,4.21 118.72,4.85 C118.72,5.54 118.59,6.12 118.33,6.59 C118.07,7.06 117.72,7.44 117.29,7.72 C116.85,8.01 116.34,8.21 115.75,8.34 C115.16,8.47 114.54,8.53 113.89,8.53 L112.19,8.53 L112.19,13.68 L109.98,13.68 L109.98,1.26 L109.97,1.26 Z M113.73,6.69 C114.09,6.69 114.44,6.66 114.77,6.61 C115.1,6.56 115.39,6.46 115.65,6.33 C115.91,6.2 116.11,6.01 116.26,5.78 C116.41,5.55 116.49,5.24 116.49,4.87 C116.49,4.51 116.41,4.21 116.26,3.98 C116.11,3.75 115.91,3.57 115.65,3.44 C115.4,3.31 115.11,3.23 114.79,3.19 C114.47,3.15 114.14,3.13 113.8,3.13 L112.18,3.13 L112.18,6.69 L113.73,6.69 Z"/><polygon fill="#000" points="123.78 1.26 125.99 1.26 125.99 6.28 131.8 6.28 131.8 1.26 134.01 1.26 134.01 13.69 131.8 13.69 131.8 8.18 125.99 8.18 125.99 13.69 123.78 13.69 123.78 1.26"/><polygon fill="#000" points="140.15 1.26 148.39 1.26 148.39 3.19 142.37 3.19 142.37 6.35 148.08 6.35 148.08 8.21 142.37 8.21 142.37 11.72 148.71 11.72 148.71 13.69 140.16 13.69 140.16 1.26"/><path fill="#000" fill-rule="nonzero" d="M154.26,1.26 L158.58,1.26 C159.16,1.26 159.73,1.32 160.28,1.44 C160.83,1.56 161.32,1.76 161.75,2.05 C162.18,2.33 162.52,2.7 162.78,3.16 C163.04,3.62 163.17,4.17 163.17,4.83 C163.17,5.73 162.92,6.47 162.41,7.03 C161.9,7.6 161.21,7.98 160.33,8.18 L163.65,13.69 L160.98,13.69 L158.1,8.42 L156.49,8.42 L156.49,13.69 L154.28,13.69 L154.28,1.26 L154.26,1.26 Z M158.28,6.61 C158.6,6.61 158.91,6.59 159.23,6.54 C159.55,6.49 159.83,6.41 160.08,6.28 C160.33,6.15 160.54,5.97 160.7,5.73 C160.86,5.49 160.95,5.18 160.95,4.81 C160.95,4.47 160.87,4.19 160.72,3.98 C160.57,3.76 160.37,3.59 160.14,3.46 C159.91,3.33 159.64,3.24 159.34,3.2 C159.04,3.15 158.75,3.13 158.47,3.13 L156.47,3.13 L156.47,6.62 L158.28,6.62 L158.28,6.61 Z"/><polygon fill="#000" points="59.63 24.26 55.82 24.26 55.82 22.33 65.65 22.33 65.65 24.26 61.84 24.26 61.84 34.76 59.63 34.76"/><polygon fill="#000" points="70.44 22.33 78.68 22.33 78.68 24.26 72.66 24.26 72.66 27.42 78.37 27.42 78.37 29.28 72.66 29.28 72.66 32.79 79 32.79 79 34.76 70.45 34.76 70.45 22.33"/><path fill="#000" d="M93.26,25.25 C92.93,24.81 92.5,24.48 91.98,24.27 C91.45,24.07 90.94,23.96 90.43,23.96 C89.79,23.96 89.2,24.08 88.67,24.31 C88.14,24.54 87.69,24.87 87.31,25.28 C86.93,25.69 86.64,26.17 86.43,26.72 C86.22,27.27 86.12,27.87 86.12,28.51 C86.12,29.19 86.22,29.81 86.42,30.37 C86.62,30.93 86.9,31.41 87.27,31.82 C87.64,32.22 88.08,32.54 88.6,32.76 C89.12,32.98 89.69,33.09 90.34,33.09 C91.01,33.09 91.6,32.96 92.11,32.69 C92.63,32.43 93.04,32.08 93.36,31.65 L95.13,32.9 C94.58,33.59 93.91,34.13 93.11,34.51 C92.31,34.89 91.38,35.08 90.32,35.08 C89.35,35.08 88.46,34.92 87.64,34.6 C86.83,34.28 86.13,33.83 85.54,33.25 C84.95,32.67 84.5,31.98 84.17,31.18 C83.84,30.38 83.68,29.49 83.68,28.52 C83.68,27.52 83.85,26.63 84.2,25.82 C84.55,25.02 85.02,24.34 85.62,23.77 C86.22,23.2 86.93,22.77 87.75,22.47 C88.57,22.17 89.46,22.01 90.42,22.01 C90.82,22.01 91.23,22.05 91.67,22.12 C92.1,22.2 92.52,22.31 92.92,22.47 C93.32,22.63 93.69,22.82 94.04,23.06 C94.39,23.29 94.69,23.58 94.94,23.9 L93.26,25.25 Z"/><polygon fill="#000" points="99.9 22.33 102.11 22.33 102.11 27.35 107.92 27.35 107.92 22.33 110.13 22.33 110.13 34.76 107.92 34.76 107.92 29.25 102.11 29.25 102.11 34.76 99.9 34.76"/><polygon fill="#000" points="116.27 22.33 119.2 22.33 124.98 31.64 125.02 31.64 125.02 22.33 127.23 22.33 127.23 34.76 124.42 34.76 118.52 25.15 118.48 25.15 118.48 34.76 116.27 34.76"/><path fill="#000" fill-rule="nonzero" d="M132.74,28.52 C132.74,27.52 132.91,26.63 133.24,25.82 C133.57,25.02 134.04,24.34 134.63,23.77 C135.22,23.2 135.92,22.77 136.74,22.47 C137.55,22.17 138.44,22.01 139.4,22.01 C140.37,22.01 141.27,22.16 142.09,22.47 C142.91,22.77 143.62,23.21 144.21,23.77 C144.81,24.33 145.27,25.01 145.61,25.82 C145.94,26.62 146.11,27.52 146.11,28.52 C146.11,29.49 145.94,30.38 145.61,31.18 C145.28,31.98 144.81,32.67 144.21,33.25 C143.61,33.83 142.9,34.28 142.09,34.6 C141.27,34.92 140.37,35.08 139.4,35.08 C138.44,35.08 137.55,34.92 136.74,34.6 C135.93,34.28 135.22,33.83 134.63,33.25 C134.04,32.67 133.58,31.98 133.24,31.18 C132.91,30.37 132.74,29.49 132.74,28.52 Z M135.15,28.52 C135.15,29.19 135.25,29.8 135.46,30.35 C135.66,30.91 135.96,31.39 136.34,31.8 C136.72,32.21 137.17,32.53 137.69,32.76 C138.21,32.99 138.79,33.1 139.42,33.1 C140.05,33.1 140.63,32.99 141.16,32.76 C141.69,32.53 142.14,32.21 142.52,31.8 C142.9,31.39 143.19,30.91 143.4,30.35 C143.6,29.79 143.71,29.18 143.71,28.52 C143.71,27.88 143.61,27.28 143.4,26.73 C143.19,26.18 142.91,25.7 142.53,25.29 C142.15,24.88 141.7,24.56 141.18,24.32 C140.65,24.09 140.07,23.97 139.42,23.97 C138.77,23.97 138.19,24.09 137.67,24.32 C137.15,24.55 136.7,24.88 136.33,25.29 C135.95,25.7 135.67,26.18 135.46,26.73 C135.25,27.27 135.15,27.87 135.15,28.52 Z"/><polygon fill="#000" points="151.59 22.33 153.8 22.33 153.8 32.8 159.09 32.8 159.09 34.77 151.59 34.77"/><path fill="#000" fill-rule="nonzero" d="M162.99,28.52 C162.99,27.52 163.16,26.63 163.49,25.82 C163.82,25.02 164.29,24.34 164.88,23.77 C165.47,23.21 166.17,22.77 166.99,22.47 C167.8,22.17 168.69,22.01 169.65,22.01 C170.62,22.01 171.52,22.16 172.34,22.47 C173.16,22.77 173.87,23.21 174.46,23.77 C175.06,24.33 175.52,25.01 175.86,25.82 C176.19,26.62 176.36,27.52 176.36,28.52 C176.36,29.49 176.19,30.38 175.86,31.18 C175.53,31.98 175.06,32.67 174.46,33.25 C173.86,33.83 173.15,34.28 172.34,34.6 C171.52,34.92 170.62,35.08 169.65,35.08 C168.69,35.08 167.8,34.92 166.99,34.6 C166.18,34.28 165.47,33.83 164.88,33.25 C164.29,32.67 163.83,31.98 163.49,31.18 C163.16,30.37 162.99,29.49 162.99,28.52 Z M165.4,28.52 C165.4,29.19 165.5,29.8 165.71,30.35 C165.91,30.91 166.21,31.39 166.59,31.8 C166.97,32.21 167.42,32.53 167.94,32.76 C168.46,32.99 169.04,33.1 169.67,33.1 C170.3,33.1 170.88,32.99 171.41,32.76 C171.94,32.53 172.39,32.21 172.77,31.8 C173.15,31.39 173.44,30.91 173.65,30.35 C173.86,29.79 173.96,29.18 173.96,28.52 C173.96,27.88 173.86,27.28 173.65,26.73 C173.45,26.18 173.16,25.7 172.78,25.29 C172.4,24.88 171.95,24.56 171.43,24.32 C170.9,24.09 170.32,23.97 169.67,23.97 C169.02,23.97 168.44,24.09 167.92,24.32 C167.4,24.55 166.95,24.88 166.58,25.29 C166.2,25.7 165.91,26.18 165.71,26.73 C165.5,27.27 165.4,27.87 165.4,28.52 Z"/><path fill="#000" d="M192.7,34.12 C192.07,34.42 191.37,34.66 190.62,34.83 C189.86,35 189,35.08 188.01,35.08 C187,35.08 186.08,34.92 185.25,34.6 C184.42,34.28 183.7,33.83 183.11,33.25 C182.51,32.67 182.05,31.98 181.71,31.18 C181.38,30.38 181.21,29.49 181.21,28.52 C181.21,27.52 181.38,26.63 181.73,25.82 C182.07,25.02 182.55,24.34 183.15,23.77 C183.75,23.21 184.46,22.77 185.28,22.47 C186.1,22.17 186.99,22.01 187.95,22.01 C188.95,22.01 189.86,22.15 190.68,22.44 C191.51,22.73 192.17,23.1 192.67,23.57 L191.14,25.22 C190.82,24.87 190.38,24.57 189.81,24.32 C189.24,24.07 188.62,23.95 187.96,23.95 C187.3,23.95 186.71,24.07 186.18,24.3 C185.65,24.53 185.19,24.86 184.82,25.27 C184.44,25.68 184.15,26.16 183.95,26.71 C183.74,27.26 183.64,27.86 183.64,28.5 C183.64,29.17 183.74,29.78 183.95,30.33 C184.15,30.89 184.45,31.37 184.83,31.78 C185.21,32.19 185.67,32.51 186.22,32.74 C186.76,32.97 187.38,33.08 188.07,33.08 C189.02,33.08 189.84,32.93 190.55,32.64 L190.55,29.5 L187.93,29.5 L187.93,27.67 L192.69,27.67 L192.69,34.12 L192.7,34.12 Z"/><polygon fill="#000" points="201.64 29.38 196.97 22.34 199.68 22.34 202.81 27.57 205.97 22.34 208.53 22.34 203.86 29.38 203.86 34.77 201.65 34.77 201.65 29.38"/><path fill="#000" d="M226.96,24.93 C226.73,24.63 226.39,24.37 225.97,24.17 C225.54,23.96 225.11,23.86 224.68,23.86 C224.42,23.86 224.16,23.89 223.91,23.96 C223.65,24.02 223.42,24.12 223.21,24.26 C223,24.39 222.83,24.57 222.69,24.79 C222.56,25.01 222.49,25.27 222.49,25.57 C222.49,25.85 222.55,26.09 222.67,26.29 C222.79,26.49 222.95,26.66 223.15,26.8 C223.36,26.94 223.6,27.06 223.9,27.17 C224.19,27.28 224.51,27.38 224.87,27.49 C225.27,27.62 225.68,27.77 226.11,27.93 C226.54,28.09 226.93,28.31 227.29,28.58 C227.65,28.85 227.94,29.19 228.17,29.6 C228.4,30.01 228.51,30.52 228.51,31.13 C228.51,31.8 228.39,32.38 228.14,32.88 C227.89,33.38 227.57,33.79 227.16,34.12 C226.75,34.45 226.27,34.69 225.72,34.86 C225.17,35.02 224.59,35.11 223.98,35.11 C223.17,35.11 222.38,34.96 221.61,34.66 C220.84,34.36 220.2,33.92 219.71,33.33 L221.29,31.85 C221.59,32.27 222,32.61 222.51,32.85 C223.02,33.1 223.52,33.22 224.01,33.22 C224.27,33.22 224.53,33.19 224.8,33.12 C225.07,33.06 225.31,32.95 225.53,32.8 C225.75,32.65 225.92,32.46 226.06,32.23 C226.19,32 226.26,31.72 226.26,31.38 C226.26,31.05 226.18,30.78 226.03,30.56 C225.88,30.34 225.67,30.16 225.41,30 C225.15,29.84 224.85,29.7 224.5,29.59 C224.15,29.48 223.78,29.35 223.39,29.22 C223.01,29.1 222.64,28.96 222.27,28.8 C221.89,28.64 221.56,28.42 221.26,28.15 C220.96,27.88 220.72,27.55 220.53,27.16 C220.34,26.77 220.25,26.28 220.25,25.69 C220.25,25.06 220.38,24.51 220.65,24.06 C220.91,23.6 221.26,23.23 221.69,22.93 C222.12,22.63 222.6,22.41 223.15,22.26 C223.69,22.11 224.25,22.04 224.81,22.04 C225.44,22.04 226.08,22.15 226.73,22.37 C227.38,22.59 227.94,22.93 228.43,23.37 L226.96,24.93 Z"/><polygon fill="#000" points="236.79 24.26 232.98 24.26 232.98 22.33 242.81 22.33 242.81 24.26 239 24.26 239 34.76 236.79 34.76"/><path fill="#000" d="M257.56,30.2 C257.56,30.95 257.43,31.63 257.17,32.23 C256.91,32.83 256.56,33.35 256.12,33.77 C255.67,34.19 255.15,34.52 254.54,34.74 C253.93,34.97 253.27,35.08 252.56,35.08 C251.85,35.08 251.18,34.97 250.58,34.74 C249.98,34.51 249.44,34.19 248.99,33.77 C248.54,33.35 248.19,32.84 247.94,32.23 C247.69,31.63 247.56,30.95 247.56,30.2 L247.56,22.33 L249.77,22.33 L249.77,30.11 C249.77,30.47 249.82,30.83 249.91,31.19 C250,31.55 250.16,31.87 250.37,32.15 C250.59,32.43 250.87,32.66 251.23,32.84 C251.59,33.02 252.03,33.1 252.56,33.1 C253.09,33.1 253.53,33.01 253.89,32.84 C254.25,32.66 254.53,32.44 254.75,32.15 C254.97,31.87 255.12,31.55 255.22,31.19 C255.31,30.83 255.36,30.47 255.36,30.11 L255.36,22.33 L257.57,22.33 L257.57,30.2 L257.56,30.2 Z"/><path fill="#000" fill-rule="nonzero" d="M263.61,22.33 L268.02,22.33 C268.83,22.33 269.64,22.44 270.46,22.65 C271.28,22.86 272.02,23.21 272.67,23.69 C273.33,24.18 273.86,24.81 274.27,25.6 C274.68,26.39 274.88,27.37 274.88,28.54 C274.88,29.63 274.67,30.57 274.27,31.35 C273.86,32.13 273.33,32.78 272.67,33.28 C272.01,33.78 271.28,34.16 270.46,34.4 C269.64,34.64 268.83,34.76 268.02,34.76 L263.61,34.76 L263.61,22.33 Z M267.66,32.84 C268.23,32.84 268.81,32.77 269.38,32.64 C269.95,32.51 270.47,32.28 270.93,31.95 C271.39,31.63 271.77,31.19 272.06,30.64 C272.35,30.09 272.5,29.39 272.5,28.55 C272.5,27.66 272.35,26.93 272.06,26.37 C271.77,25.81 271.39,25.37 270.93,25.05 C270.47,24.73 269.95,24.52 269.38,24.4 C268.81,24.28 268.23,24.22 267.66,24.22 L265.82,24.22 L265.82,32.83 L267.66,32.83 L267.66,32.84 Z"/><polygon fill="#000" points="280.38 22.33 282.59 22.33 282.59 34.76 280.38 34.76"/><path fill="#000" fill-rule="nonzero" d="M288.11,28.52 C288.11,27.52 288.28,26.63 288.61,25.82 C288.94,25.02 289.41,24.34 290,23.77 C290.59,23.21 291.29,22.77 292.11,22.47 C292.92,22.17 293.81,22.01 294.77,22.01 C295.74,22.01 296.64,22.16 297.46,22.47 C298.28,22.77 298.99,23.21 299.58,23.77 C300.18,24.33 300.64,25.01 300.98,25.82 C301.31,26.62 301.48,27.52 301.48,28.52 C301.48,29.49 301.31,30.38 300.98,31.18 C300.65,31.98 300.18,32.67 299.58,33.25 C298.98,33.83 298.27,34.28 297.46,34.6 C296.64,34.92 295.74,35.08 294.77,35.08 C293.81,35.08 292.92,34.92 292.11,34.6 C291.3,34.28 290.59,33.83 290,33.25 C289.41,32.67 288.95,31.98 288.61,31.18 C288.28,30.37 288.11,29.49 288.11,28.52 Z M290.52,28.52 C290.52,29.19 290.62,29.8 290.83,30.35 C291.03,30.91 291.33,31.39 291.71,31.8 C292.09,32.21 292.54,32.53 293.06,32.76 C293.58,32.99 294.16,33.1 294.79,33.1 C295.42,33.1 296,32.99 296.53,32.76 C297.06,32.53 297.51,32.21 297.89,31.8 C298.27,31.39 298.56,30.91 298.77,30.35 C298.98,29.79 299.08,29.18 299.08,28.52 C299.08,27.88 298.98,27.28 298.77,26.73 C298.57,26.18 298.28,25.7 297.9,25.29 C297.52,24.88 297.07,24.56 296.55,24.32 C296.02,24.09 295.44,23.97 294.79,23.97 C294.14,23.97 293.56,24.09 293.04,24.32 C292.52,24.55 292.07,24.88 291.7,25.29 C291.32,25.7 291.03,26.18 290.83,26.73 C290.62,27.27 290.52,27.87 290.52,28.52 Z"/><path fill="#000" d="M313.1,24.93 C312.87,24.63 312.53,24.37 312.11,24.17 C311.68,23.96 311.25,23.86 310.82,23.86 C310.56,23.86 310.3,23.89 310.05,23.96 C309.79,24.02 309.56,24.12 309.35,24.26 C309.14,24.39 308.97,24.57 308.83,24.79 C308.7,25.01 308.63,25.27 308.63,25.57 C308.63,25.85 308.69,26.09 308.81,26.29 C308.93,26.49 309.09,26.66 309.29,26.8 C309.5,26.94 309.74,27.06 310.04,27.17 C310.33,27.28 310.65,27.38 311.01,27.49 C311.41,27.62 311.82,27.77 312.25,27.93 C312.68,28.09 313.07,28.31 313.43,28.58 C313.79,28.85 314.08,29.19 314.31,29.6 C314.54,30.01 314.65,30.52 314.65,31.13 C314.65,31.8 314.53,32.38 314.28,32.88 C314.03,33.38 313.71,33.79 313.3,34.12 C312.89,34.45 312.41,34.69 311.86,34.86 C311.31,35.02 310.73,35.11 310.12,35.11 C309.31,35.11 308.52,34.96 307.75,34.66 C306.98,34.36 306.34,33.92 305.85,33.33 L307.43,31.85 C307.73,32.27 308.14,32.61 308.65,32.85 C309.16,33.1 309.66,33.22 310.15,33.22 C310.41,33.22 310.67,33.19 310.94,33.12 C311.21,33.06 311.45,32.95 311.67,32.8 C311.89,32.65 312.06,32.46 312.2,32.23 C312.33,32 312.4,31.72 312.4,31.38 C312.4,31.05 312.32,30.78 312.17,30.56 C312.02,30.34 311.81,30.16 311.55,30 C311.29,29.84 310.99,29.7 310.64,29.59 C310.29,29.48 309.92,29.35 309.53,29.22 C309.15,29.1 308.78,28.96 308.41,28.8 C308.03,28.64 307.7,28.42 307.4,28.15 C307.1,27.88 306.86,27.55 306.67,27.16 C306.48,26.77 306.39,26.28 306.39,25.69 C306.39,25.06 306.52,24.51 306.79,24.06 C307.05,23.6 307.4,23.23 307.83,22.93 C308.26,22.63 308.74,22.41 309.29,22.26 C309.83,22.11 310.39,22.04 310.95,22.04 C311.58,22.04 312.22,22.15 312.87,22.37 C313.52,22.59 314.08,22.93 314.57,23.37 L313.1,24.93 Z"/></g></svg>